<?xml version="1.0" encoding="utf-8"?>
<!-- Generator: Adobe Illustrator 19.2.0, SVG Export Plug-In . SVG Version: 6.00 Build 0)  -->
<svg version="1.1" id="SE_Download_on_the" xmlns="http://www.w3.org/2000/svg" xmlns:xlink="http://www.w3.org/1999/xlink" x="0px"
	 y="0px" viewBox="0 0 150 44" style="enable-background: new 0 0 150 44;" xml:space="preserve">
<style type="text/css">
  .st0 { fill: #fff; }
</style>
<path d="M150,39.6c0,2.4-1.9,4.4-4.3,4.4H4.3C1.9,44,0,42,0,39.6V4.4C0,2,1.9,0,4.3,0h141.4c2.4,0,4.3,2,4.3,4.4L150,39.6L150,39.6z
	"/>
<g>
	<g>
		<path class="st0" d="M32.9,21.8c0-3.6,3-5.4,3.1-5.5c-1.7-2.5-4.3-2.8-5.3-2.8c-2.2-0.2-4.4,1.3-5.5,1.3c-1.2,0-2.9-1.3-4.8-1.3
			c-2.4,0-4.7,1.4-5.9,3.6C12.1,21.5,14,28,16.4,31.6c1.2,1.7,2.7,3.7,4.5,3.6c1.8-0.1,2.5-1.2,4.7-1.2c2.2,0,2.8,1.2,4.7,1.1
			c2,0,3.2-1.8,4.4-3.5c1.4-2,2-4,2-4.1C36.7,27.6,33,26.1,32.9,21.8z"/>
		<path class="st0" d="M29.3,11.1c1-1.2,1.7-2.9,1.5-4.6c-1.4,0.1-3.2,1-4.2,2.2c-0.9,1.1-1.7,2.8-1.5,4.4
			C26.7,13.2,28.3,12.3,29.3,11.1z"/>
	</g>
</g>
<g>
	<path class="st0" d="M59.4,35h-2.6l-1.4-4.4h-4.9L49.3,35h-2.5l4.8-15h3L59.4,35z M55.1,28.7l-1.3-3.9c-0.1-0.4-0.4-1.3-0.8-2.8h0
		c-0.1,0.6-0.4,1.6-0.7,2.8L51,28.7H55.1z"/>
	<path class="st0" d="M71.8,29.5c0,1.8-0.5,3.3-1.5,4.4c-0.9,0.9-2,1.4-3.3,1.4c-1.4,0-2.4-0.5-3.1-1.5h0v5.7h-2.4V27.7
		c0-1.2,0-2.3-0.1-3.6h2.1l0.1,1.7h0c0.8-1.3,2-1.9,3.6-1.9c1.3,0,2.3,0.5,3.2,1.5C71.4,26.5,71.8,27.8,71.8,29.5z M69.4,29.5
		c0-1.1-0.2-1.9-0.7-2.6c-0.5-0.7-1.2-1.1-2.1-1.1c-0.6,0-1.1,0.2-1.6,0.6c-0.5,0.4-0.8,0.9-0.9,1.5c-0.1,0.3-0.1,0.5-0.1,0.7v1.8
		c0,0.8,0.2,1.4,0.7,2s1.1,0.8,1.9,0.8c0.9,0,1.6-0.3,2.1-1C69.1,31.6,69.4,30.7,69.4,29.5z"/>
	<path class="st0" d="M84.3,29.5c0,1.8-0.5,3.3-1.5,4.4c-0.9,0.9-2,1.4-3.3,1.4c-1.4,0-2.4-0.5-3.1-1.5h0v5.7H74V27.7
		c0-1.2,0-2.3-0.1-3.6H76l0.1,1.7h0c0.8-1.3,2-1.9,3.6-1.9c1.3,0,2.3,0.5,3.2,1.5C83.9,26.5,84.3,27.8,84.3,29.5z M81.8,29.5
		c0-1.1-0.2-1.9-0.7-2.6c-0.5-0.7-1.2-1.1-2.1-1.1c-0.6,0-1.1,0.2-1.6,0.6c-0.5,0.4-0.8,0.9-0.9,1.5c-0.1,0.3-0.1,0.5-0.1,0.7v1.8
		c0,0.8,0.2,1.4,0.7,2c0.5,0.5,1.1,0.8,1.9,0.8c0.9,0,1.6-0.3,2.1-1C81.6,31.6,81.8,30.7,81.8,29.5z"/>
	<path class="st0" d="M98.2,30.8c0,1.3-0.4,2.3-1.3,3.1c-1,0.9-2.3,1.3-4.1,1.3c-1.6,0-2.9-0.3-3.9-0.9l0.6-2c1.1,0.6,2.2,1,3.5,1
		c0.9,0,1.6-0.2,2.1-0.6c0.5-0.4,0.8-1,0.8-1.6c0-0.6-0.2-1.1-0.6-1.5c-0.4-0.4-1.1-0.8-2.1-1.2c-2.6-1-3.9-2.4-3.9-4.3
		c0-1.2,0.5-2.2,1.4-3c0.9-0.8,2.1-1.2,3.7-1.2c1.4,0,2.5,0.2,3.4,0.7l-0.6,2c-0.8-0.5-1.8-0.7-2.9-0.7c-0.8,0-1.5,0.2-2,0.6
		c-0.4,0.4-0.6,0.8-0.6,1.4c0,0.6,0.2,1.1,0.7,1.5c0.4,0.4,1.1,0.7,2.2,1.2c1.3,0.5,2.2,1.1,2.8,1.8C97.9,28.9,98.2,29.7,98.2,30.8z
		"/>
	<path class="st0" d="M106.1,26h-2.6v5.2c0,1.3,0.5,2,1.4,2c0.4,0,0.8,0,1.1-0.1l0.1,1.8c-0.5,0.2-1.1,0.3-1.9,0.3
		c-0.9,0-1.7-0.3-2.2-0.9c-0.5-0.6-0.8-1.6-0.8-2.9V26h-1.6v-1.8h1.6v-2l2.4-0.7v2.7h2.6C106.1,24.2,106.1,26,106.1,26z"/>
	<path class="st0" d="M118.1,29.5c0,1.7-0.5,3-1.4,4.1c-1,1.1-2.3,1.6-4,1.6c-1.6,0-2.8-0.5-3.8-1.6s-1.4-2.4-1.4-4
		c0-1.7,0.5-3,1.5-4.1c1-1.1,2.3-1.6,3.9-1.6c1.6,0,2.9,0.5,3.8,1.6C117.6,26.6,118.1,27.9,118.1,29.5z M115.6,29.6
		c0-1-0.2-1.9-0.6-2.6c-0.5-0.9-1.2-1.3-2.2-1.3c-1,0-1.7,0.4-2.2,1.3c-0.4,0.7-0.6,1.6-0.6,2.6c0,1,0.2,1.9,0.6,2.6
		c0.5,0.9,1.2,1.3,2.2,1.3c0.9,0,1.6-0.4,2.2-1.3C115.4,31.4,115.6,30.6,115.6,29.6z"/>
	<path class="st0" d="M125.9,26.3c-0.2,0-0.5-0.1-0.8-0.1c-0.8,0-1.5,0.3-2,1c-0.4,0.6-0.6,1.3-0.6,2.1V35h-2.4l0-7.4
		c0-1.2,0-2.4-0.1-3.4h2.1l0.1,2.1h0.1c0.3-0.7,0.7-1.3,1.2-1.7c0.5-0.4,1.1-0.6,1.7-0.6c0.2,0,0.4,0,0.6,0
		C125.9,24,125.9,26.3,125.9,26.3z"/>
	<path class="st0" d="M136.6,29.1c0,0.4,0,0.8-0.1,1.1h-7.2c0,1.1,0.4,1.9,1,2.4c0.6,0.5,1.4,0.8,2.4,0.8c1.1,0,2-0.2,2.9-0.5
		l0.4,1.7c-1,0.4-2.2,0.7-3.6,0.7c-1.7,0-3-0.5-3.9-1.5c-1-1-1.4-2.3-1.4-4c0-1.6,0.4-3,1.3-4.1c0.9-1.2,2.2-1.7,3.8-1.7
		c1.6,0,2.7,0.6,3.5,1.7C136.3,26.6,136.6,27.7,136.6,29.1z M134.3,28.5c0-0.7-0.1-1.3-0.5-1.8c-0.4-0.7-1.1-1-1.9-1
		c-0.8,0-1.4,0.3-1.9,1c-0.4,0.5-0.6,1.1-0.7,1.9L134.3,28.5L134.3,28.5z"/>
</g>
<g>
	<g>
		<path class="st0" d="M53.8,14.6h-1.2v-3.3h-3.2v3.3h-1.2V7.3h1.2v3h3.2v-3h1.2V14.6z"/>
		<path class="st0" d="M59.9,14.6h-1.1L58.7,14h0c-0.4,0.5-0.9,0.7-1.6,0.7c-0.5,0-0.9-0.2-1.2-0.5c-0.3-0.3-0.4-0.7-0.4-1.1
			c0-0.6,0.3-1.1,0.8-1.5c0.5-0.3,1.3-0.5,2.3-0.5v-0.1c0-0.7-0.4-1-1.1-1c-0.5,0-1,0.1-1.4,0.4l-0.2-0.8c0.5-0.3,1.1-0.5,1.8-0.5
			c1.4,0,2.1,0.7,2.1,2.2v2C59.8,13.9,59.8,14.3,59.9,14.6z M57.4,8c0,0.2-0.1,0.3-0.2,0.4c-0.1,0.1-0.3,0.2-0.4,0.2
			s-0.3-0.1-0.4-0.2c-0.1-0.1-0.2-0.3-0.2-0.4s0.1-0.3,0.2-0.4c0.1-0.1,0.3-0.2,0.4-0.2c0.2,0,0.3,0.1,0.4,0.2
			C57.3,7.7,57.4,7.8,57.4,8z M58.7,12.8V12c-1.3,0-2,0.3-2,1.1c0,0.3,0.1,0.5,0.2,0.6c0.2,0.1,0.3,0.2,0.6,0.2
			c0.3,0,0.5-0.1,0.7-0.2c0.2-0.2,0.4-0.4,0.4-0.6C58.6,13,58.7,12.9,58.7,12.8z M59.4,8c0,0.2-0.1,0.3-0.2,0.4
			c-0.1,0.1-0.3,0.2-0.4,0.2c-0.2,0-0.3-0.1-0.4-0.2c-0.1-0.1-0.2-0.3-0.2-0.4c0-0.2,0.1-0.3,0.2-0.4c0.1-0.1,0.3-0.2,0.4-0.2
			c0.2,0,0.3,0.1,0.4,0.2C59.4,7.7,59.4,7.8,59.4,8z"/>
		<path class="st0" d="M69.5,14.6h-1.2v-3c0-1-0.3-1.5-1-1.5c-0.3,0-0.6,0.1-0.8,0.4c-0.2,0.2-0.3,0.5-0.3,0.9v3.2h-1.2v-3.1
			c0-0.4-0.1-0.7-0.2-1c-0.2-0.2-0.4-0.4-0.7-0.4c-0.3,0-0.6,0.1-0.8,0.4c-0.2,0.3-0.3,0.6-0.3,0.9v3.2h-1.2v-3.8c0-0.5,0-1,0-1.5h1
			l0.1,0.8h0c0.4-0.6,0.9-0.9,1.6-0.9c0.7,0,1.2,0.3,1.5,1h0c0.2-0.3,0.4-0.5,0.6-0.7c0.3-0.2,0.7-0.3,1.1-0.3
			c0.5,0,0.9,0.2,1.2,0.5c0.4,0.4,0.6,1,0.6,1.8L69.5,14.6L69.5,14.6z"/>
		<path class="st0" d="M74.2,10.2h-1.3v2.6c0,0.7,0.2,1,0.7,1c0.2,0,0.4,0,0.5-0.1l0,0.9c-0.2,0.1-0.5,0.1-0.9,0.1
			c-0.5,0-0.8-0.1-1.1-0.4c-0.3-0.3-0.4-0.8-0.4-1.4v-2.7H71V9.3h0.8v-1L72.9,8v1.3h1.3L74.2,10.2L74.2,10.2z"/>
		<path class="st0" d="M79.8,14.6h-1.1L78.7,14h0c-0.4,0.5-0.9,0.7-1.6,0.7c-0.5,0-0.9-0.2-1.2-0.5c-0.3-0.3-0.4-0.7-0.4-1.1
			c0-0.6,0.3-1.1,0.8-1.5c0.5-0.3,1.3-0.5,2.3-0.5v-0.1c0-0.7-0.4-1-1.1-1c-0.5,0-1,0.1-1.4,0.4l-0.2-0.8c0.5-0.3,1.1-0.5,1.8-0.5
			c1.4,0,2.1,0.7,2.1,2.2v2C79.8,13.9,79.8,14.3,79.8,14.6z M78.6,12.8V12c-1.3,0-2,0.3-2,1.1c0,0.3,0.1,0.5,0.2,0.6
			c0.2,0.1,0.3,0.2,0.6,0.2c0.3,0,0.5-0.1,0.7-0.2c0.2-0.2,0.4-0.4,0.4-0.6C78.6,13,78.6,12.9,78.6,12.8z"/>
		<path class="st0" d="M86.3,7.7c0,0.2-0.1,0.4-0.2,0.5c-0.1,0.1-0.3,0.2-0.5,0.2c-0.2,0-0.4-0.1-0.5-0.2c-0.1-0.1-0.2-0.3-0.2-0.5
			s0.1-0.4,0.2-0.5S85.4,7,85.6,7c0.2,0,0.4,0.1,0.5,0.2C86.3,7.4,86.3,7.5,86.3,7.7z M86.2,14.6H85V9.3h1.2V14.6z"/>
	</g>
</g>
</svg>
